<svg width="40" height="40" viewBox="0 0 40 40" fill="none" xmlns="http://www.w3.org/2000/svg">
<circle cx="20" cy="20" r="20" fill="white"/>
<path d="M19.1367 19.9902V28.0936H13.7983V26.739" stroke="black" stroke-miterlimit="10"/>
<path d="M13.7983 18.7807V17.4707H17.8436" stroke="black" stroke-miterlimit="10"/>
<path d="M17.9237 12.0968H14.9766V10.79H17.9237V12.0968Z" stroke="black" stroke-miterlimit="10"/>
<path d="M13.6348 12.4019C14.0863 12.2073 14.5839 12.0996 15.1065 12.0996H17.7939C19.8555 12.0996 21.527 13.776 21.527 15.844V16.3658" stroke="black" stroke-miterlimit="10"/>
<path d="M21.5268 17.8848V31.9038C21.5268 32.8972 20.7238 33.7026 19.7335 33.7026H13.1668C12.1764 33.7026 11.3735 32.8972 11.3735 31.9038V28.0932" stroke="black" stroke-miterlimit="10"/>
<path d="M15.5308 9.61938V10.7902H17.3697L17.3714 8.39355" stroke="black" stroke-miterlimit="10"/>
<path d="M3.97119 28.7997C4.7813 27.2344 7.20829 20.4549 8.04413 16.712C8.88009 12.9691 12.5936 8.55454 13.6586 7.63793C14.1472 7.21761 16.2127 6.61531 17.0249 6.39736C17.9999 6.14288 17.6789 8.04734 17.3187 8.33741C16.9613 8.62627 16.2154 8.95473 14.9466 10.1137C13.7502 11.2067 11.9293 16.6827 12.6515 17.7431C13.3735 18.8035 14.5109 19.6677 15.3397 19.3246C16.1684 18.9815 17.9292 16.8498 19.7751 16.3587C21.7109 15.8437 22.4419 16.6982 21.4443 18.0573C20.4464 19.4164 18.7779 19.7775 16.5975 23.1344C14.417 26.4913 12.4601 27.8758 10.849 28.3626C9.2378 28.8493 9.43247 30.8797 9.14668 31.4022" stroke="black" stroke-miterlimit="10" stroke-linecap="round"/>
<path d="M32.9695 28.0542C33.4942 27.3225 33.3911 24.7029 32.5789 23.0885C32.305 22.5439 31.5642 22.802 31.308 23.3552C30.5609 24.969 28.6561 26.8651 27.4334 27.6033M25.3969 24.1596C25.5023 26.3803 27.7124 28.6061 30.5686 28.6061C33.4249 28.6061 35.7403 26.3828 35.7403 24.1596C35.7403 22.1324 35.0013 22.1216 33.8931 20.4541C33.1759 19.3751 33.6964 17.3651 34.1529 16.0808C34.3437 15.5442 33.925 14.9544 33.3664 15.0578C30.0297 15.6758 28.4288 17.6823 28.5361 21.2166C28.5484 21.621 27.9612 21.8298 27.7471 21.487L27.1338 20.5042C26.8437 20.0394 26.1739 20.0465 25.9661 20.5537C25.5542 21.5587 25.3301 22.7496 25.3969 24.1596Z" stroke="black" stroke-width="1.25" stroke-linecap="round"/>
<path d="M8.88867 33L33.5992 8.21313" stroke="#FF625D" stroke-width="3" stroke-linecap="round"/>
</svg>
