<svg width="66" height="66" viewBox="0 0 66 66" fill="none" xmlns="http://www.w3.org/2000/svg">
<ellipse cx="33.2373" cy="33.199" rx="32.5" ry="32.3298" fill="white"/>
<path d="M47.8793 18.3106C44.1022 14.7608 39.0795 12.8062 33.7373 12.8062C28.3951 12.8062 23.3725 14.7611 19.5949 18.3106C15.8177 21.8606 13.7373 26.5801 13.7373 31.6001C13.7373 32.2084 14.2619 32.7014 14.9089 32.7014C15.5562 32.7014 16.0808 32.2084 16.0808 31.6001C16.0808 29.7685 17.6668 28.2782 19.616 28.2782C23.0568 28.2782 21.7944 32.7014 24.3231 32.7014C26.8518 32.7014 25.5895 28.2782 29.0302 28.2782C32.4709 28.2782 33.7373 32.7014 33.7373 32.7014C33.7373 32.7014 35.0037 28.2782 38.4444 28.2782C41.8851 28.2782 40.9882 32.7014 43.1515 32.7014C45.3149 32.7014 44.4179 28.2782 47.8586 28.2782C49.8079 28.2782 51.3939 29.7685 51.3939 31.6001C51.3939 32.2084 51.9184 32.7014 52.5657 32.7014C53.2128 32.7014 53.7373 32.2084 53.7373 31.6001C53.7373 26.5801 51.6571 21.8606 47.8793 18.3106Z" stroke="#137B92" stroke-width="3"/>
<path d="M33.7372 32.7017C33.7372 32.7017 33.7372 40.1078 33.7372 47.171C33.7372 54.4056 22.8281 54.4056 22.8281 47.171" stroke="#137B92" stroke-width="3" stroke-linecap="round" stroke-linejoin="round"/>
</svg>
