<svg width="65" height="66" viewBox="0 0 65 66" fill="none" xmlns="http://www.w3.org/2000/svg">
<ellipse cx="32.5" cy="33.199" rx="32.5" ry="32.3298" fill="white"/>
<path d="M32.9999 43.5536C39.0248 43.5536 43.909 38.6949 43.909 32.7016C43.909 26.7082 39.0248 21.8496 32.9999 21.8496C26.975 21.8496 22.0908 26.7082 22.0908 32.7016C22.0908 38.6949 26.975 43.5536 32.9999 43.5536Z" stroke="#FFE70E" stroke-width="4" stroke-linecap="round" stroke-linejoin="round"/>
<path d="M51.1816 32.7017H52.9998" stroke="#FFE70E" stroke-width="4" stroke-linecap="round" stroke-linejoin="round"/>
<path d="M33 14.6148V12.8062" stroke="#FFE70E" stroke-width="4" stroke-linecap="round" stroke-linejoin="round"/>
<path d="M33 52.5967V50.7881" stroke="#FFE70E" stroke-width="4" stroke-linecap="round" stroke-linejoin="round"/>
<path d="M47.5457 47.171L45.7275 45.3623" stroke="#FFE70E" stroke-width="4" stroke-linecap="round" stroke-linejoin="round"/>
<path d="M47.5457 18.2319L45.7275 20.0406" stroke="#FFE70E" stroke-width="4" stroke-linecap="round" stroke-linejoin="round"/>
<path d="M18.4546 47.171L20.2728 45.3623" stroke="#FFE70E" stroke-width="4" stroke-linecap="round" stroke-linejoin="round"/>
<path d="M18.4546 18.2319L20.2728 20.0406" stroke="#FFE70E" stroke-width="4" stroke-linecap="round" stroke-linejoin="round"/>
<path d="M13 32.7017H14.8182" stroke="#FFE70E" stroke-width="4" stroke-linecap="round" stroke-linejoin="round"/>
</svg>
