<svg width="36" height="35" viewBox="0 0 36 35" fill="none" xmlns="http://www.w3.org/2000/svg">
<ellipse cx="17.7293" cy="17.3446" rx="17.4359" ry="17.3446" fill="#C7FFB7"/>
<path d="M21.202 27.263C22.0176 26.1258 21.8574 22.0542 20.595 19.5448C20.1694 18.6984 19.0178 19.0996 18.6197 19.9595C17.4585 22.4678 14.4979 25.4149 12.5975 26.5621M9.43224 21.2096C9.59601 24.6613 13.0311 28.1208 17.4705 28.1208C21.9099 28.1208 25.5087 24.6652 25.5087 21.2096C25.5087 18.0589 24.3602 18.042 22.6377 15.4503C21.523 13.7732 22.3319 10.6491 23.0414 8.65296C23.338 7.81893 22.6872 6.90216 21.819 7.06294C16.6328 8.02348 14.1446 11.1422 14.3114 16.6355C14.3305 17.264 13.4178 17.5885 13.0851 17.0557L12.1318 15.5282C11.6809 14.8058 10.6399 14.8168 10.3168 15.6051C9.67663 17.1672 9.32827 19.0182 9.43224 21.2096Z" fill="#C7FFB7"/>
<path d="M21.202 27.263C22.0176 26.1258 21.8574 22.0542 20.595 19.5448C20.1694 18.6984 19.0178 19.0996 18.6197 19.9595C17.4585 22.4678 14.4979 25.4149 12.5975 26.5621M9.43224 21.2096C9.59601 24.6613 13.0311 28.1208 17.4705 28.1208C21.9099 28.1208 25.5087 24.6652 25.5087 21.2096C25.5087 18.0589 24.3602 18.042 22.6377 15.4503C21.523 13.7732 22.3319 10.6491 23.0414 8.65296C23.338 7.81893 22.6872 6.90216 21.819 7.06294C16.6328 8.02348 14.1446 11.1422 14.3114 16.6355C14.3305 17.264 13.4178 17.5885 13.0851 17.0557L12.1318 15.5282C11.6809 14.8058 10.6399 14.8168 10.3168 15.6051C9.67663 17.1672 9.32827 19.0182 9.43224 21.2096Z" stroke="white" stroke-width="2" stroke-linecap="round"/>
</svg>
