<svg width="36" height="36" viewBox="0 0 36 36" fill="none" xmlns="http://www.w3.org/2000/svg">
<ellipse cx="18.1878" cy="17.8851" rx="17.4359" ry="17.3446" fill="#FFFF55"/>
<path d="M21.6605 27.8031C22.4761 26.6658 22.3159 22.5942 21.0535 20.0849C20.6279 19.2385 19.4763 19.6397 19.0782 20.4995C17.917 23.0079 14.9564 25.9549 13.056 27.1022M9.89073 21.7497C10.0545 25.2014 13.4896 28.6609 17.929 28.6609C22.3684 28.6609 25.9672 25.2053 25.9672 21.7497C25.9672 18.599 24.8187 18.582 23.0962 15.9903C21.9815 14.3132 22.7904 11.1891 23.4999 9.193C23.7965 8.35897 23.1457 7.4422 22.2775 7.60298C17.0913 8.56352 14.6031 11.6822 14.7699 17.1755C14.789 17.8041 13.8763 18.1285 13.5436 17.5957L12.5903 16.0682C12.1394 15.3459 11.0984 15.3569 10.7753 16.1451C10.1351 17.7072 9.78676 19.5582 9.89073 21.7497Z" stroke="white" stroke-width="2" stroke-linecap="round"/>
</svg>
