<svg width="35" height="35" viewBox="0 0 35 35" fill="none" xmlns="http://www.w3.org/2000/svg">
<ellipse cx="17.4359" cy="17.3446" rx="17.4359" ry="17.3446" fill="#002778"/>
<path d="M20.9086 27.263C21.7241 26.1258 21.5639 22.0542 20.3016 19.5448C19.8759 18.6984 18.7244 19.0996 18.3263 19.9595C17.1651 22.4678 14.2044 25.4149 12.3041 26.5621M9.13878 21.2096C9.30255 24.6613 12.7376 28.1208 17.177 28.1208C21.6164 28.1208 25.2152 24.6652 25.2152 21.2096C25.2152 18.0589 24.0667 18.042 22.3442 15.4503C21.2295 13.7732 22.0384 10.6491 22.748 8.65296C23.0446 7.81893 22.3937 6.90216 21.5256 7.06294C16.3393 8.02348 13.8512 11.1422 14.0179 16.6355C14.037 17.264 13.1243 17.5885 12.7916 17.0557L11.8383 15.5282C11.3874 14.8058 10.3464 14.8168 10.0234 15.6051C9.38318 17.1672 9.03481 19.0182 9.13878 21.2096Z" stroke="white" stroke-width="2" stroke-linecap="round"/>
</svg>
