<svg width="35" height="36" viewBox="0 0 35 36" fill="none" xmlns="http://www.w3.org/2000/svg">
<ellipse cx="17.5643" cy="17.8851" rx="17.4359" ry="17.3446" fill="#FC0000"/>
<path d="M21.0365 27.8036C21.8521 26.6663 21.6919 22.5947 20.4295 20.0854C20.0038 19.239 18.8523 19.6402 18.4542 20.5C17.293 23.0083 14.3323 25.9554 12.432 27.1026M9.26671 21.7502C9.43048 25.2018 12.8656 28.6614 17.3049 28.6614C21.7443 28.6614 25.3432 25.2058 25.3432 21.7502C25.3432 18.5995 24.1946 18.5825 22.4722 15.9908C21.3575 14.3137 22.1664 11.1896 22.8759 9.19349C23.1725 8.35946 22.5216 7.44269 21.6535 7.60347C16.4672 8.56401 13.9791 11.6827 14.1459 17.176C14.1649 17.8046 13.2522 18.129 12.9196 17.5962L11.9662 16.0687C11.5153 15.3463 10.4744 15.3573 10.1513 16.1456C9.51111 17.7077 9.16274 19.5587 9.26671 21.7502Z" fill="#FC0000"/>
<path d="M21.0365 27.8036C21.8521 26.6663 21.6919 22.5947 20.4295 20.0854C20.0038 19.239 18.8523 19.6402 18.4542 20.5C17.293 23.0083 14.3323 25.9554 12.432 27.1026M9.26671 21.7502C9.43048 25.2018 12.8656 28.6614 17.3049 28.6614C21.7443 28.6614 25.3432 25.2058 25.3432 21.7502C25.3432 18.5995 24.1946 18.5825 22.4722 15.9908C21.3575 14.3137 22.1664 11.1896 22.8759 9.19349C23.1725 8.35946 22.5216 7.44269 21.6535 7.60347C16.4672 8.56401 13.9791 11.6827 14.1459 17.176C14.1649 17.8046 13.2522 18.129 12.9196 17.5962L11.9662 16.0687C11.5153 15.3463 10.4744 15.3573 10.1513 16.1456C9.51111 17.7077 9.16274 19.5587 9.26671 21.7502Z" stroke="white" stroke-width="2" stroke-linecap="round"/>
</svg>
