<svg width="36" height="35" viewBox="0 0 36 35" fill="none" xmlns="http://www.w3.org/2000/svg">
<ellipse cx="18.2703" cy="17.3446" rx="17.4359" ry="17.3446" fill="#82FF5A"/>
<path d="M21.7431 27.263C22.5586 26.1258 22.3984 22.0542 21.1361 19.5448C20.7104 18.6984 19.5588 19.0996 19.1607 19.9595C17.9995 22.4678 15.0389 25.4149 13.1385 26.5621M9.97325 21.2096C10.137 24.6613 13.5721 28.1208 18.0115 28.1208C22.4509 28.1208 26.0497 24.6652 26.0497 21.2096C26.0497 18.0589 24.9012 18.042 23.1787 15.4503C22.064 13.7732 22.8729 10.6491 23.5824 8.65296C23.8791 7.81893 23.2282 6.90216 22.3601 7.06294C17.1738 8.02348 14.6856 11.1422 14.8524 16.6355C14.8715 17.264 13.9588 17.5885 13.6261 17.0557L12.6728 15.5282C12.2219 14.8058 11.1809 14.8168 10.8579 15.6051C10.2176 17.1672 9.86928 19.0182 9.97325 21.2096Z" fill="#82FF5A"/>
<path d="M21.7431 27.263C22.5586 26.1258 22.3984 22.0542 21.1361 19.5448C20.7104 18.6984 19.5588 19.0996 19.1607 19.9595C17.9995 22.4678 15.0389 25.4149 13.1385 26.5621M9.97325 21.2096C10.137 24.6613 13.5721 28.1208 18.0115 28.1208C22.4509 28.1208 26.0497 24.6652 26.0497 21.2096C26.0497 18.0589 24.9012 18.042 23.1787 15.4503C22.064 13.7732 22.8729 10.6491 23.5824 8.65296C23.8791 7.81893 23.2282 6.90216 22.3601 7.06294C17.1738 8.02348 14.6856 11.1422 14.8524 16.6355C14.8715 17.264 13.9588 17.5885 13.6261 17.0557L12.6728 15.5282C12.2219 14.8058 11.1809 14.8168 10.8579 15.6051C10.2176 17.1672 9.86928 19.0182 9.97325 21.2096Z" stroke="white" stroke-width="2" stroke-linecap="round"/>
</svg>
