<svg width="36" height="36" viewBox="0 0 36 36" fill="none" xmlns="http://www.w3.org/2000/svg">
<ellipse cx="17.6468" cy="17.8851" rx="17.4359" ry="17.3446" fill="#FFD170"/>
<path d="M21.119 27.8031C21.9346 26.6658 21.7744 22.5942 20.512 20.0849C20.0864 19.2385 18.9348 19.6397 18.5367 20.4995C17.3755 23.0079 14.4149 25.9549 12.5145 27.1022M9.34923 21.7497C9.513 25.2014 12.9481 28.6609 17.3875 28.6609C21.8269 28.6609 25.4257 25.2053 25.4257 21.7497C25.4257 18.599 24.2771 18.582 22.5547 15.9903C21.44 14.3132 22.2489 11.1891 22.9584 9.193C23.255 8.35897 22.6042 7.4422 21.736 7.60298C16.5498 8.56352 14.0616 11.6822 14.2284 17.1755C14.2475 17.8041 13.3347 18.1285 13.0021 17.5957L12.0488 16.0682C11.5979 15.3459 10.5569 15.3569 10.2338 16.1451C9.59363 17.7072 9.24526 19.5582 9.34923 21.7497Z" fill="#FFD170"/>
<path d="M21.119 27.8031C21.9346 26.6658 21.7744 22.5942 20.512 20.0849C20.0864 19.2385 18.9348 19.6397 18.5367 20.4995C17.3755 23.0079 14.4149 25.9549 12.5145 27.1022M9.34923 21.7497C9.513 25.2014 12.9481 28.6609 17.3875 28.6609C21.8269 28.6609 25.4257 25.2053 25.4257 21.7497C25.4257 18.599 24.2771 18.582 22.5547 15.9903C21.44 14.3132 22.2489 11.1891 22.9584 9.193C23.255 8.35897 22.6042 7.4422 21.736 7.60298C16.5498 8.56352 14.0616 11.6822 14.2284 17.1755C14.2475 17.8041 13.3347 18.1285 13.0021 17.5957L12.0488 16.0682C11.5979 15.3459 10.5569 15.3569 10.2338 16.1451C9.59363 17.7072 9.24526 19.5582 9.34923 21.7497Z" stroke="white" stroke-width="2" stroke-linecap="round"/>
</svg>
