<svg width="36" height="35" viewBox="0 0 36 35" fill="none" xmlns="http://www.w3.org/2000/svg">
<ellipse cx="18.3533" cy="17.3446" rx="17.4359" ry="17.3446" fill="#0086AC"/>
<path d="M21.8256 27.263C22.6411 26.1258 22.4809 22.0542 21.2186 19.5448C20.7929 18.6984 19.6414 19.0996 19.2432 19.9595C18.0821 22.4678 15.1214 25.4149 13.221 26.5621M10.0558 21.2096C10.2195 24.6613 13.6546 28.1208 18.094 28.1208C22.5334 28.1208 26.1322 24.6652 26.1322 21.2096C26.1322 18.0589 24.9837 18.042 23.2612 15.4503C22.1465 13.7732 22.9554 10.6491 23.665 8.65296C23.9616 7.81893 23.3107 6.90216 22.4426 7.06294C17.2563 8.02348 14.7682 11.1422 14.9349 16.6355C14.954 17.264 14.0413 17.5885 13.7086 17.0557L12.7553 15.5282C12.3044 14.8058 11.2634 14.8168 10.9404 15.6051C10.3002 17.1672 9.9518 19.0182 10.0558 21.2096Z" stroke="white" stroke-width="2" stroke-linecap="round"/>
</svg>
