<svg width="30" height="30" viewBox="0 0 30 30" fill="none" xmlns="http://www.w3.org/2000/svg">
<rect width="30" height="30" rx="15" fill="#FF0000"/>
<path d="M21.1006 23.1591L25.2835 19.0578C25.4066 18.9371 25.4757 18.7735 25.4757 18.6028V12.971C25.4757 12.0825 24.7411 11.3623 23.835 11.3623C22.9289 11.3623 22.1944 12.0825 22.1944 12.971V17.7969" stroke="white" stroke-linecap="round" stroke-linejoin="round"/>
<path d="M21.1002 18.8695L22.0387 17.9493C22.1382 17.8518 22.194 17.7197 22.194 17.582C22.194 17.3852 22.0805 17.2053 21.901 17.1173L21.4166 16.8798C20.5745 16.4669 19.5573 16.6288 18.8915 17.2816L17.9127 18.2413C17.5024 18.6436 17.272 19.1891 17.272 19.7579V23.1592" stroke="white" stroke-linecap="round" stroke-linejoin="round"/>
<path d="M7.97519 23.1591L3.79232 19.0578C3.66924 18.9371 3.6001 18.7735 3.6001 18.6028V12.971C3.6001 12.0825 4.33464 11.3623 5.24076 11.3623C6.14687 11.3623 6.88142 12.0825 6.88142 12.971V17.7969" stroke="white" stroke-linecap="round" stroke-linejoin="round"/>
<path d="M7.97512 18.8695L7.03652 17.9493C6.93716 17.8518 6.88135 17.7197 6.88135 17.582C6.88135 17.3852 6.99473 17.2053 7.17422 17.1173L7.65866 16.8798C8.50083 16.4669 9.51799 16.6288 10.1838 17.2816L11.1626 18.2413C11.5729 18.6436 11.8033 19.1891 11.8033 19.7579V23.1592" stroke="white" stroke-linecap="round" stroke-linejoin="round"/>
<path d="M16.3607 14.5795H12.7147V12.0771H10.1626V8.50234H12.7147V6H16.3607V8.50234H18.9128V12.0771H16.3607V14.5795Z" stroke="white" stroke-linecap="round" stroke-linejoin="round"/>
</svg>
