<svg width="36" height="35" viewBox="0 0 36 35" fill="none" xmlns="http://www.w3.org/2000/svg">
<ellipse cx="17.8948" cy="17.3446" rx="17.4359" ry="17.3446" fill="#004FAE"/>
<path d="M21.3676 27.263C22.1831 26.1258 22.0229 22.0542 20.7606 19.5448C20.3349 18.6984 19.1834 19.0996 18.7852 19.9595C17.6241 22.4678 14.6634 25.4149 12.763 26.5621M9.59776 21.2096C9.76154 24.6613 13.1966 28.1208 17.636 28.1208C22.0754 28.1208 25.6742 24.6652 25.6742 21.2096C25.6742 18.0589 24.5257 18.042 22.8032 15.4503C21.6885 13.7732 22.4974 10.6491 23.207 8.65296C23.5036 7.81893 22.8527 6.90216 21.9846 7.06294C16.7983 8.02348 14.3101 11.1422 14.4769 16.6355C14.496 17.264 13.5833 17.5885 13.2506 17.0557L12.2973 15.5282C11.8464 14.8058 10.8054 14.8168 10.4824 15.6051C9.84216 17.1672 9.4938 19.0182 9.59776 21.2096Z" stroke="white" stroke-width="2" stroke-linecap="round"/>
</svg>
