<svg width="36" height="35" viewBox="0 0 36 35" fill="none" xmlns="http://www.w3.org/2000/svg">
<ellipse cx="17.8123" cy="17.3446" rx="17.4359" ry="17.3446" fill="#00C9FF"/>
<path d="M21.2841 27.263C22.0996 26.1258 21.9394 22.0542 20.6771 19.5448C20.2514 18.6984 19.0999 19.0996 18.7017 19.9595C17.5406 22.4678 14.5799 25.4149 12.6795 26.5621M9.51427 21.2096C9.67804 24.6613 13.1131 28.1208 17.5525 28.1208C21.9919 28.1208 25.5907 24.6652 25.5907 21.2096C25.5907 18.0589 24.4422 18.042 22.7197 15.4503C21.605 13.7732 22.4139 10.6491 23.1235 8.65296C23.4201 7.81893 22.7692 6.90216 21.9011 7.06294C16.7148 8.02348 14.2266 11.1422 14.3934 16.6355C14.4125 17.264 13.4998 17.5885 13.1671 17.0557L12.2138 15.5282C11.7629 14.8058 10.7219 14.8168 10.3989 15.6051C9.75866 17.1672 9.4103 19.0182 9.51427 21.2096Z" fill="#00C9FF"/>
<path d="M21.2841 27.263C22.0996 26.1258 21.9394 22.0542 20.6771 19.5448C20.2514 18.6984 19.0999 19.0996 18.7017 19.9595C17.5406 22.4678 14.5799 25.4149 12.6795 26.5621M9.51427 21.2096C9.67804 24.6613 13.1131 28.1208 17.5525 28.1208C21.9919 28.1208 25.5907 24.6652 25.5907 21.2096C25.5907 18.0589 24.4422 18.042 22.7197 15.4503C21.605 13.7732 22.4139 10.6491 23.1235 8.65296C23.4201 7.81893 22.7692 6.90216 21.9011 7.06294C16.7148 8.02348 14.2266 11.1422 14.3934 16.6355C14.4125 17.264 13.4998 17.5885 13.1671 17.0557L12.2138 15.5282C11.7629 14.8058 10.7219 14.8168 10.3989 15.6051C9.75866 17.1672 9.4103 19.0182 9.51427 21.2096Z" stroke="white" stroke-width="2" stroke-linecap="round"/>
</svg>
