<svg width="36" height="36" viewBox="0 0 36 36" fill="none" xmlns="http://www.w3.org/2000/svg">
<ellipse cx="18.1053" cy="17.8851" rx="17.4359" ry="17.3446" fill="#FFA500"/>
<path d="M21.578 27.8031C22.3936 26.6658 22.2334 22.5942 20.971 20.0849C20.5453 19.2385 19.3938 19.6397 18.9957 20.4995C17.8345 23.0079 14.8738 25.9549 12.9735 27.1022M9.80821 21.7497C9.97199 25.2014 13.4071 28.6609 17.8464 28.6609C22.2859 28.6609 25.8847 25.2053 25.8847 21.7497C25.8847 18.599 24.7361 18.582 23.0137 15.9903C21.899 14.3132 22.7079 11.1891 23.4174 9.193C23.714 8.35897 23.0631 7.4422 22.195 7.60298C17.0087 8.56352 14.5206 11.6822 14.6874 17.1755C14.7064 17.8041 13.7937 18.1285 13.4611 17.5957L12.5077 16.0682C12.0569 15.3459 11.0159 15.3569 10.6928 16.1451C10.0526 17.7072 9.70424 19.5582 9.80821 21.7497Z" fill="#FFA500"/>
<path d="M21.578 27.8031C22.3936 26.6658 22.2334 22.5942 20.971 20.0849C20.5453 19.2385 19.3938 19.6397 18.9957 20.4995C17.8345 23.0079 14.8738 25.9549 12.9735 27.1022M9.80821 21.7497C9.97199 25.2014 13.4071 28.6609 17.8464 28.6609C22.2859 28.6609 25.8847 25.2053 25.8847 21.7497C25.8847 18.599 24.7361 18.582 23.0137 15.9903C21.899 14.3132 22.7079 11.1891 23.4174 9.193C23.714 8.35897 23.0631 7.4422 22.195 7.60298C17.0087 8.56352 14.5206 11.6822 14.6874 17.1755C14.7064 17.8041 13.7937 18.1285 13.4611 17.5957L12.5077 16.0682C12.0569 15.3459 11.0159 15.3569 10.6928 16.1451C10.0526 17.7072 9.70424 19.5582 9.80821 21.7497Z" stroke="white" stroke-width="2" stroke-linecap="round"/>
</svg>
