<svg width="40" height="40" viewBox="0 0 40 40" fill="none" xmlns="http://www.w3.org/2000/svg">
<circle cx="20" cy="20" r="20" fill="white"/>
<path d="M35 21.3514C34.7373 24.1944 33.6703 26.9038 31.9239 29.1626C30.1775 31.4213 27.8239 33.136 25.1386 34.106C22.4532 35.0759 19.5472 35.2611 16.7605 34.6397C13.9738 34.0183 11.4216 32.6162 9.40274 30.5973C7.38384 28.5784 5.98167 26.0262 5.3603 23.2395C4.73893 20.4528 4.92406 17.5468 5.89402 14.8614C6.86399 12.1761 8.57867 9.82251 10.8374 8.07611C13.0962 6.32972 15.8056 5.26273 18.6486 5C16.9841 7.25189 16.1832 10.0264 16.3914 12.8189C16.5997 15.6115 17.8033 18.2365 19.7834 20.2166C21.7635 22.1967 24.3885 23.4003 27.1811 23.6086C29.9736 23.8168 32.7481 23.0159 35 21.3514Z" stroke="black" stroke-linecap="round" stroke-linejoin="round"/>
<path d="M8 33L32.7105 8.21313" stroke="#FF625D" stroke-width="3" stroke-linecap="round"/>
</svg>
