<svg width="40" height="40" viewBox="0 0 40 40" fill="none" xmlns="http://www.w3.org/2000/svg">
<circle cx="20" cy="20" r="20" fill="white"/>
<path d="M18.4075 17.4136C18.6496 15.8188 18.8046 12.2332 16.0502 9.4789C13.2959 6.72456 9.71031 6.87948 8.11558 7.12161C7.59576 7.20055 7.20055 7.59576 7.12161 8.11558C6.87948 9.7103 6.72454 13.2959 9.47889 16.0502C12.2332 18.8045 15.8188 18.6496 17.4135 18.4075C17.9333 18.3286 18.3285 17.9334 18.4075 17.4136ZM18.4075 17.4136L18.4077 34M27.5826 26.8507C31.0427 24.8531 31.8309 21.2532 32.0095 19.624C32.0669 19.1014 31.7881 18.6184 31.3068 18.4067C29.8066 17.7468 26.2949 16.6295 22.8347 18.6272C19.3745 20.625 18.5865 24.2249 18.4077 25.8539C18.3503 26.3767 18.6292 26.8597 19.1104 27.0714C20.6108 27.7311 24.1223 28.8485 27.5826 26.8507Z" stroke="black" stroke-width="1.25" stroke-linecap="round"/>
<path d="M8 33L32.7105 8.21313" stroke="#FF625D" stroke-width="3" stroke-linecap="round"/>
</svg>
