<svg width="27" height="22" viewBox="0 0 27 22" fill="none" xmlns="http://www.w3.org/2000/svg">
<path d="M1 20.3184V19.1821C1 14.7889 4.56138 11.2275 8.95455 11.2275C13.3477 11.2275 16.9091 14.7889 16.9091 19.1821V20.3184" fill="white"/>
<path d="M1 20.3184V19.1821C1 14.7889 4.56138 11.2275 8.95455 11.2275C13.3477 11.2275 16.9091 14.7889 16.9091 19.1821V20.3184" stroke="#FFC8A7" stroke-width="2" stroke-linecap="round"/>
<path d="M14.6362 13.5002C14.6362 10.3622 17.1801 7.81836 20.318 7.81836C23.456 7.81836 25.9999 10.3622 25.9999 13.5002V14.0684" fill="white"/>
<path d="M14.6362 13.5002C14.6362 10.3622 17.1801 7.81836 20.318 7.81836C23.456 7.81836 25.9999 10.3622 25.9999 13.5002V14.0684" stroke="#FFC8A7" stroke-width="2" stroke-linecap="round"/>
<path d="M8.95415 11.2276C11.4645 11.2276 13.4996 9.19251 13.4996 6.68217C13.4996 4.17179 11.4645 2.13672 8.95415 2.13672C6.44376 2.13672 4.40869 4.17179 4.40869 6.68217C4.40869 9.19251 6.44376 11.2276 8.95415 11.2276Z" fill="white" stroke="#FFC8A7" stroke-width="2" stroke-linecap="round" stroke-linejoin="round"/>
<path d="M20.3178 7.81818C22.2006 7.81818 23.7269 6.29187 23.7269 4.40909C23.7269 2.52631 22.2006 1 20.3178 1C18.4349 1 16.9087 2.52631 16.9087 4.40909C16.9087 6.29187 18.4349 7.81818 20.3178 7.81818Z" fill="white" stroke="#FFC8A7" stroke-width="2" stroke-linecap="round" stroke-linejoin="round"/>
</svg>
